<?xml version="1.0" standalone="no"?><!DOCTYPE svg PUBLIC "-//W3C//DTD SVG 1.1//EN" "http://www.w3.org/Graphics/SVG/1.1/DTD/svg11.dtd"><svg t="1772682454258" class="icon" viewBox="0 0 1024 1024" version="1.1" xmlns="http://www.w3.org/2000/svg" p-id="1709" xmlns:xlink="http://www.w3.org/1999/xlink" width="200" height="200"><path d="M533.755253 541.824475l-20.726823 20.647713-20.647713-20.647713A87.574784 87.574784 0 0 0 368.494438 665.948084l20.489493 20.647713 123.728059 124.12361L636.677379 686.595797l20.647714-20.647713a88.207664 88.207664 0 0 0 0-124.123609 87.021014 87.021014 0 0 0-123.56984 0z" fill="#d4237a" p-id="1710"></path><path d="M129.26576 938.719407V384h765.46848v554.719407z m85.043263-768v85.280593h84.964154V170.719407H724.489493v85.280593h85.201484V170.719407h85.043263v128H129.26576V170.719407z m765.54759-85.438814H809.690977V0H724.489493v85.280593H299.273177V0H214.309023v85.280593H44.143387v938.719407h935.713226z" fill="#d4237a" p-id="1711"></path></svg>